<svg xmlns="http://www.w3.org/2000/svg" width="600" height="400" viewBox="0 0 600 400">
  <defs>
    <linearGradient id="g1" x1="0" y1="0" x2="1" y2="1">
      <stop offset="0%" stop-color="#7aa2ff"/>
      <stop offset="100%" stop-color="#4dd0e1"/>
    </linearGradient>
  </defs>
  <rect width="600" height="400" rx="16" fill="#0b1020"/>
  <g transform="translate(300,200)">
    <path d="M0 0 L 0 -130 A 130 130 0 0 1 98.5 85.3 Z" fill="url(#g1)"/>
    <path d="M0 0 L 98.5 85.3 A 130 130 0 0 1 -121.5 46.5 Z" fill="#66bb6a"/>
    <path d="M0 0 L -121.5 46.5 A 130 130 0 0 1 0 -130 Z" fill="#ffb74d"/>
  </g>
  <g fill="#e6ecff" font-family="Outfit, sans-serif" font-size="14">
    <rect x="30" y="30" width="12" height="12" fill="url(#g1)" rx="3"/>
    <text x="50" y="41">Plastics 35%</text>
    <rect x="30" y="54" width="12" height="12" fill="#66bb6a" rx="3"/>
    <text x="50" y="65">Metals 40%</text>
    <rect x="30" y="78" width="12" height="12" fill="#ffb74d" rx="3"/>
    <text x="50" y="89">Fabrics 25%</text>
  </g>
</svg>



